<?xml version="1.0"?><svg xmlns="http://www.w3.org/2000/svg" style="background:#0f1a26" viewBox="0 0 200 200" role="img" aria-label="Synthcorp Concourse"><line x1="69.7600021362305" y1="130.240005493164" x2="29.4400005340576" y2="100.0" stroke="#2a6f86" stroke-width="3.6" stroke-linecap="round"/><line x1="54.4000000953674" y1="113.720006227493" x2="49.5999999046326" y2="120.120005369186" stroke="#dbe7f3" stroke-width="1.1" opacity=".7"/><line x1="49.6000046730042" y1="110.120000123978" x2="44.8000044822693" y2="116.519999265671" stroke="#dbe7f3" stroke-width="1.1" opacity=".7"/><line x1="69.7600021362305" y1="130.240005493164" x2="100.0" y2="170.559997558594" stroke="#2a6f86" stroke-width="3.6" stroke-linecap="round"/><line x1="79.880001783371" y1="150.400000333786" x2="86.2800018787384" y2="145.599999666214" stroke="#dbe7f3" stroke-width="1.1" opacity=".7"/><line x1="83.4800078868866" y1="155.199988126755" x2="89.880007982254" y2="150.399987459183" stroke="#dbe7f3" stroke-width="1.1" opacity=".7"/><line x1="130.240005493164" y1="130.240005493164" x2="100.0" y2="170.559997558594" stroke="#2a6f86" stroke-width="3.6" stroke-linecap="round"/><line x1="113.720006227493" y1="145.599999427795" x2="120.120005369186" y2="150.400000572205" stroke="#dbe7f3" stroke-width="1.1" opacity=".7"/><line x1="110.120000123978" y1="150.399987220764" x2="116.519999265671" y2="155.199988365173" stroke="#dbe7f3" stroke-width="1.1" opacity=".7"/><line x1="130.240005493164" y1="130.240005493164" x2="170.559997558594" y2="100.0" stroke="#2a6f86" stroke-width="3.6" stroke-linecap="round"/><line x1="150.400000572205" y1="120.120005369186" x2="145.599999427795" y2="113.720006227493" stroke="#dbe7f3" stroke-width="1.1" opacity=".7"/><line x1="155.199988365173" y1="116.519999265671" x2="150.399987220764" y2="110.120000123978" stroke="#dbe7f3" stroke-width="1.1" opacity=".7"/><line x1="130.240005493164" y1="69.7600021362305" x2="170.559997558594" y2="100.0" stroke="#2a6f86" stroke-width="3.6" stroke-linecap="round"/><line x1="145.599999666214" y1="86.2800018787384" x2="150.400000333786" y2="79.880001783371" stroke="#dbe7f3" stroke-width="1.1" opacity=".7"/><line x1="150.399987459183" y1="89.880007982254" x2="155.199988126755" y2="83.4800078868866" stroke="#dbe7f3" stroke-width="1.1" opacity=".7"/><line x1="130.240005493164" y1="69.7600021362305" x2="100.0" y2="29.4400005340576" stroke="#2a6f86" stroke-width="3.6" stroke-linecap="round"/><line x1="120.120005369186" y1="49.5999999046326" x2="113.720006227493" y2="54.4000000953674" stroke="#dbe7f3" stroke-width="1.1" opacity=".7"/><line x1="116.519999265671" y1="44.8000044822693" x2="110.120000123978" y2="49.6000046730042" stroke="#dbe7f3" stroke-width="1.1" opacity=".7"/><line x1="69.7600021362305" y1="69.7600021362305" x2="29.4400005340576" y2="100.0" stroke="#2a6f86" stroke-width="3.6" stroke-linecap="round"/><line x1="49.6000039577484" y1="79.880001783371" x2="54.4000036716461" y2="86.2800018787384" stroke="#dbe7f3" stroke-width="1.1" opacity=".7"/><line x1="44.8000009059906" y1="83.4800078868866" x2="49.6000006198883" y2="89.880007982254" stroke="#dbe7f3" stroke-width="1.1" opacity=".7"/><line x1="69.7600021362305" y1="69.7600021362305" x2="100.0" y2="29.4400005340576" stroke="#2a6f86" stroke-width="3.6" stroke-linecap="round"/><line x1="86.2800018787384" y1="54.4000036716461" x2="79.880001783371" y2="49.6000039577484" stroke="#dbe7f3" stroke-width="1.1" opacity=".7"/><line x1="89.880007982254" y1="49.6000006198883" x2="83.4800078868866" y2="44.8000009059906" stroke="#dbe7f3" stroke-width="1.1" opacity=".7"/><line x1="76.4800033569336" y1="100.0" x2="29.4400005340576" y2="100.0" stroke="#2a6f86" stroke-width="3.6" stroke-linecap="round"/><line x1="55.9600028991699" y1="96.0" x2="55.9600028991699" y2="104.0" stroke="#dbe7f3" stroke-width="1.1" opacity=".7"/><line x1="49.9600028991699" y1="96.0" x2="49.9600028991699" y2="104.0" stroke="#dbe7f3" stroke-width="1.1" opacity=".7"/><line x1="100.0" y1="123.519996643066" x2="100.0" y2="170.559997558594" stroke="#2a6f86" stroke-width="3.6" stroke-linecap="round"/><line x1="96.0" y1="144.039993286133" x2="104.0" y2="144.039993286133" stroke="#dbe7f3" stroke-width="1.1" opacity=".7"/><line x1="96.0" y1="150.039993286133" x2="104.0" y2="150.039993286133" stroke="#dbe7f3" stroke-width="1.1" opacity=".7"/><line x1="123.519996643066" y1="100.0" x2="170.559997558594" y2="100.0" stroke="#2a6f86" stroke-width="3.6" stroke-linecap="round"/><line x1="144.039993286133" y1="104.0" x2="144.039993286133" y2="96.0" stroke="#dbe7f3" stroke-width="1.1" opacity=".7"/><line x1="150.039993286133" y1="104.0" x2="150.039993286133" y2="96.0" stroke="#dbe7f3" stroke-width="1.1" opacity=".7"/><line x1="100.0" y1="76.4800033569336" x2="100.0" y2="29.4400005340576" stroke="#2a6f86" stroke-width="3.6" stroke-linecap="round"/><line x1="104.0" y1="55.9600028991699" x2="96.0" y2="55.9600028991699" stroke="#dbe7f3" stroke-width="1.1" opacity=".7"/><line x1="104.0" y1="49.9600028991699" x2="96.0" y2="49.9600028991699" stroke="#dbe7f3" stroke-width="1.1" opacity=".7"/><line x1="69.7600021362305" y1="130.240005493164" x2="76.4800033569336" y2="100.0" stroke="#2a6f86" stroke-width="3.6" stroke-linecap="round"/><line x1="77.0247509479523" y1="115.987724602222" x2="69.2152545452118" y2="114.252280890942" stroke="#dbe7f3" stroke-width="1.1" opacity=".7"/><line x1="69.7600021362305" y1="130.240005493164" x2="100.0" y2="123.519996643066" stroke="#2a6f86" stroke-width="3.6" stroke-linecap="round"/><line x1="85.7477278709412" y1="130.784752845764" x2="84.0122818946838" y2="122.975256919861" stroke="#dbe7f3" stroke-width="1.1" opacity=".7"/><line x1="130.240005493164" y1="130.240005493164" x2="100.0" y2="123.519996643066" stroke="#2a6f86" stroke-width="3.6" stroke-linecap="round"/><line x1="115.987725496292" y1="122.975256919861" x2="114.252279996872" y2="130.784752845764" stroke="#dbe7f3" stroke-width="1.1" opacity=".7"/><line x1="130.240005493164" y1="130.240005493164" x2="123.519996643066" y2="100.0" stroke="#ff5a5a" stroke-width="3.6" stroke-dasharray="7 5" stroke-linecap="round"/><line x1="130.784752845764" y1="114.252279996872" x2="122.975256919861" y2="115.987725496292" stroke="#dbe7f3" stroke-width="1.1" opacity=".7"/><line x1="130.240005493164" y1="69.7600021362305" x2="123.519996643066" y2="100.0" stroke="#2a6f86" stroke-width="3.6" stroke-linecap="round"/><line x1="122.975256919861" y1="84.0122818946838" x2="130.784752845764" y2="85.7477278709412" stroke="#dbe7f3" stroke-width="1.1" opacity=".7"/><line x1="130.240005493164" y1="69.7600021362305" x2="100.0" y2="76.4800033569336" stroke="#2a6f86" stroke-width="3.6" stroke-linecap="round"/><line x1="114.252280890942" y1="69.2152545452118" x2="115.987724602222" y2="77.0247509479523" stroke="#dbe7f3" stroke-width="1.1" opacity=".7"/><line x1="69.7600021362305" y1="69.7600021362305" x2="76.4800033569336" y2="100.0" stroke="#2a6f86" stroke-width="3.6" stroke-linecap="round"/><line x1="69.2152545452118" y1="85.7477269172668" x2="77.0247509479523" y2="84.0122828483582" stroke="#dbe7f3" stroke-width="1.1" opacity=".7"/><line x1="69.7600021362305" y1="69.7600021362305" x2="100.0" y2="76.4800033569336" stroke="#ff5a5a" stroke-width="3.6" stroke-dasharray="7 5" stroke-linecap="round"/><line x1="84.0122828483582" y1="77.0247509479523" x2="85.7477269172668" y2="69.2152545452118" stroke="#dbe7f3" stroke-width="1.1" opacity=".7"/><line x1="100.0" y1="100.0" x2="76.4800033569336" y2="100.0" stroke="#2a6f86" stroke-width="3.6" stroke-linecap="round"/><line x1="88.2400054931641" y1="96.0" x2="88.2400054931641" y2="104.0" stroke="#dbe7f3" stroke-width="1.1" opacity=".7"/><line x1="100.0" y1="100.0" x2="100.0" y2="123.519996643066" stroke="#2a6f86" stroke-width="3.6" stroke-linecap="round"/><line x1="96.0" y1="111.759994506836" x2="104.0" y2="111.759994506836" stroke="#dbe7f3" stroke-width="1.1" opacity=".7"/><line x1="100.0" y1="100.0" x2="123.519996643066" y2="100.0" stroke="#2a6f86" stroke-width="3.6" stroke-linecap="round"/><line x1="111.759994506836" y1="104.0" x2="111.759994506836" y2="96.0" stroke="#dbe7f3" stroke-width="1.1" opacity=".7"/><line x1="100.0" y1="100.0" x2="100.0" y2="76.4800033569336" stroke="#2a6f86" stroke-width="3.6" stroke-linecap="round"/><line x1="104.0" y1="88.2400054931641" x2="96.0" y2="88.2400054931641" stroke="#dbe7f3" stroke-width="1.1" opacity=".7"/><circle cx="100.0" cy="100.0" r="16" fill="none" stroke="#dbe7f3" stroke-width="1.2" stroke-dasharray="3 3"/><circle cx="100.0" cy="100.0" r="7" fill="#0f1a26" stroke="#a9b8c8" stroke-width="2.2"/><circle cx="100.0" cy="76.4800033569336" r="7" fill="#0f1a26" stroke="#a9b8c8" stroke-width="2.2"/><circle cx="123.519996643066" cy="100.0" r="7" fill="#0f1a26" stroke="#a9b8c8" stroke-width="2.2"/><circle cx="100.0" cy="123.519996643066" r="7" fill="#0f1a26" stroke="#a9b8c8" stroke-width="2.2"/><circle cx="76.4800033569336" cy="100.0" r="7" fill="#0f1a26" stroke="#a9b8c8" stroke-width="2.2"/><rect x="59.7600021362305" y="59.7600021362305" width="20" height="20" transform="rotate(45 69.7600021362305 69.7600021362305)" fill="#0f1a26" stroke="#ffd23f" stroke-width="2.4"/><text x="69.7600021362305" y="70.2600021362305" fill="#ffd23f" font-size="12" text-anchor="middle" dominant-baseline="middle">⇤</text><circle cx="130.240005493164" cy="69.7600021362305" r="7" fill="#0f1a26" stroke="#a9b8c8" stroke-width="2.2"/><rect x="120.240005493164" y="120.240005493164" width="20" height="20" transform="rotate(45 130.240005493164 130.240005493164)" fill="#0f1a26" stroke="#ffd23f" stroke-width="2.4"/><text x="130.240005493164" y="130.740005493164" fill="#ffd23f" font-size="12" text-anchor="middle" dominant-baseline="middle">⇤</text><circle cx="69.7600021362305" cy="130.240005493164" r="7" fill="#0f1a26" stroke="#a9b8c8" stroke-width="2.2"/><circle cx="100.0" cy="29.4400005340576" r="9" fill="#2ee6ff"/><text x="100.0" y="29.9400005340576" fill="#0f1a26" font-size="10" font-weight="600" text-anchor="middle" dominant-baseline="middle" font-family="IBM Plex Mono,monospace">A</text><rect x="156.559997558594" y="86.0" width="28" height="28" fill="none" stroke="#dbe7f3" stroke-width="1.2" stroke-dasharray="3 3"/><circle cx="170.559997558594" cy="100.0" r="7" fill="#0f1a26" stroke="#a9b8c8" stroke-width="2.2"/><circle cx="100.0" cy="170.559997558594" r="9" fill="#7dff5a"/><text x="100.0" y="171.059997558594" fill="#0f1a26" font-size="10" font-weight="600" text-anchor="middle" dominant-baseline="middle" font-family="IBM Plex Mono,monospace">B</text><circle cx="29.4400005340576" cy="100.0" r="7" fill="#0f1a26" stroke="#a9b8c8" stroke-width="2.2"/></svg>